<?xml version="1.0" encoding="UTF-8"?>
<svg version="1.1" xmlns="http://www.w3.org/2000/svg" width="150" height="146">
<path d="M0 0 C3.13192336 1.92550886 6.08826534 4.03726053 9.05859375 6.203125 C14.39880767 9.42950424 19.65749819 10.66159054 25.9140625 9.625 C32.33709527 7.79987593 38.05710974 4.39192351 43.05859375 0.015625 C46.77351522 -1.84183573 51.00423267 -1.4265557 55.05859375 -0.984375 C58.82227148 0.79481811 60.56486041 2.30794055 62.93359375 5.703125 C65.29644604 12.66041229 64.17984251 18.14922294 61.7421875 24.90234375 C59.75911321 31.03287626 61.40532904 36.0540729 63.87109375 41.73046875 C65.93219075 45.69672448 68.75580232 48.02991508 72.2734375 50.69140625 C80.67553398 57.05085367 80.67553398 57.05085367 82.05859375 61.015625 C82.72226128 66.06970849 82.63840434 69.83452935 80.37109375 74.453125 C76.86214181 78.3414231 74.47126163 79.89364765 69.16796875 80.3515625 C67.71490859 80.37048299 66.26175852 80.38328014 64.80859375 80.390625 C57.8134155 80.62734594 52.60919907 81.40229295 47.05859375 86.015625 C46.23875 86.67111328 46.23875 86.67111328 45.40234375 87.33984375 C40.89773253 91.71805006 39.19794581 97.44882417 37.41333008 103.3293457 C36.17512301 107.11826838 35.32267535 108.7874556 32.21484375 111.47265625 C27.40577313 113.82362518 23.29539017 113.78711733 18.05859375 113.015625 C13.52780311 110.83113665 11.1377375 108.56993987 9.05859375 104.015625 C8.61160194 102.39321027 8.17509949 100.76788814 7.74609375 99.140625 C5.80540666 92.41824497 2.37252616 88.05775861 -3.75390625 84.640625 C-9.38239334 82.1319279 -15.0536114 81.93232918 -21.12890625 82.140625 C-25.99166564 81.98119027 -28.86919025 80.98395682 -32.421875 77.609375 C-35.89068845 73.48955174 -36.71784656 69.78361736 -36.42578125 64.4453125 C-35.35782636 59.08831295 -32.11815037 55.6556141 -27.75390625 52.578125 C-24.94140625 51.015625 -24.94140625 51.015625 -22.94140625 51.015625 C-22.94140625 50.355625 -22.94140625 49.695625 -22.94140625 49.015625 C-22.28140625 49.015625 -21.62140625 49.015625 -20.94140625 49.015625 C-20.50828125 47.901875 -20.50828125 47.901875 -20.06640625 46.765625 C-18.94140625 44.015625 -18.94140625 44.015625 -17.890625 42.29296875 C-14.83708645 34.96698942 -16.50840505 25.13339471 -19.32421875 18 C-20.81286676 13.213714 -19.48211132 9.11783149 -17.31640625 4.703125 C-12.96643663 -0.21920905 -6.24282402 -3.16537556 0 0 Z M13.05859375 39.015625 C11.32105392 45.33395166 9.61961274 51.65147065 8.05859375 58.015625 C9.21359375 58.551875 10.36859375 59.088125 11.55859375 59.640625 C16.14326644 61.91658751 20.06847325 64.83201822 24.05859375 68.015625 C24.78046875 67.273125 25.50234375 66.530625 26.24609375 65.765625 C29.99969192 62.09544012 33.35079804 59.36952285 38.05859375 57.015625 C36.07859375 51.075625 34.09859375 45.135625 32.05859375 39.015625 C25.78859375 39.015625 19.51859375 39.015625 13.05859375 39.015625 Z " fill="#EAC41E" transform="translate(52.94140625,28.984375)"/>
<path d="M0 0 C3.76367773 1.77919311 5.50626666 3.29231555 7.875 6.6875 C9.63387005 11.86639515 9.73203805 16.80388584 8 22 C7.01 22.309375 6.02 22.61875 5 22.9375 C4.01 23.288125 3.02 23.63875 2 24 C1.85884766 24.89912109 1.85884766 24.89912109 1.71484375 25.81640625 C0.57928983 29.28512013 -2.38545614 30.36550062 -5.4375 32 C-6.06841553 32.34812744 -6.69933105 32.69625488 -7.34936523 33.05493164 C-16.02609315 37.75716548 -24.15165992 41.10002496 -34.125 41.25 C-35.67574219 41.28867188 -35.67574219 41.28867188 -37.2578125 41.328125 C-40.44472674 40.94678483 -41.05269669 40.45481185 -43 38 C-43.46529751 35.08607436 -43.78496319 32.30672781 -44 29.375 C-44.58879923 22.7989873 -45.6471769 17.20289727 -48 11 C-48 9.68 -48 8.36 -48 7 C-47.1646875 7.30744141 -47.1646875 7.30744141 -46.3125 7.62109375 C-37.41395381 10.76264131 -31.59035376 11.86008856 -22.69140625 8.3203125 C-19.31058935 6.66179855 -16.46232306 4.65409066 -13.55859375 2.26953125 C-9.56300555 -0.98502054 -4.92144008 -0.53674692 0 0 Z " fill="#B42281" transform="translate(108,28)"/>
<path d="M0 0 C-0.11859375 0.82242188 -0.2371875 1.64484375 -0.359375 2.4921875 C-1.26506788 10.33548783 -1.06114609 16.11032404 3 23 C5.18248317 25.68133647 7.4684887 27.59785124 10.21484375 29.67578125 C18.61694023 36.03522867 18.61694023 36.03522867 20 40 C20.66366753 45.05408349 20.57981059 48.81890435 18.3125 53.4375 C14.85341615 57.27053886 12.0959309 59.13813642 6.9375 59.6875 C-2.84109344 59.32954816 -11.00243699 50.44787441 -17.453125 43.8828125 C-19 42 -19 42 -19 40 C-19.66 40 -20.32 40 -21 40 C-21.103125 39.360625 -21.20625 38.72125 -21.3125 38.0625 C-21.539375 37.381875 -21.76625 36.70125 -22 36 C-22.99 35.67 -23.98 35.34 -25 35 C-26.38671875 32.015625 -26.38671875 32.015625 -27.6875 28.25 C-28.12449219 27.01765625 -28.56148438 25.7853125 -29.01171875 24.515625 C-29.87762208 21.43533649 -30.22318375 19.16076452 -30 16 C-29.16855469 15.91621094 -28.33710937 15.83242187 -27.48046875 15.74609375 C-23.26736955 14.84294903 -20.04692879 13.14949532 -16.3125 11.0625 C-15.64927734 10.70220703 -14.98605469 10.34191406 -14.30273438 9.97070312 C-8.37426884 7.15337156 -8.37426884 7.15337156 -5 2 C-2 0 -2 0 0 0 Z " fill="#D25927" transform="translate(115,50)"/>
<path d="M0 0 C0.495 1.98 0.495 1.98 1 4 C1.66 4 2.32 4 3 4 C4.41015625 5.50390625 4.41015625 5.50390625 6.0625 7.5625 C11.17084876 13.57734071 17.19596235 18.04926846 24 22 C24 22.33 24 22.66 24 23 C23.3709375 23.08636719 22.741875 23.17273438 22.09375 23.26171875 C13.60048917 24.6559438 7.66180229 27.46891406 2.16674805 34.25195312 C-0.25709984 37.88341387 -1.32549775 42.10964517 -2.58398438 46.25390625 C-3.85801608 50.0508796 -4.72823914 51.76514493 -7.84765625 54.4609375 C-12.65500767 56.80802109 -16.76630027 56.77103612 -22 56 C-26.48530992 53.83743986 -28.94776792 51.53651301 -31 47 C-31.6875 43.6875 -31.6875 43.6875 -32 41 C-31.01 40.505 -31.01 40.505 -30 40 C-29.87625 38.989375 -29.7525 37.97875 -29.625 36.9375 C-28.88591873 32.28128802 -27.258458 29.08070292 -25 25 C-24.47277344 24.02546875 -23.94554688 23.0509375 -23.40234375 22.046875 C-21.94471423 19.35904751 -20.47654574 16.67746961 -19 14 C-18.34 14 -17.68 14 -17 14 C-16.93554688 13.26265625 -16.87109375 12.5253125 -16.8046875 11.765625 C-15.74682885 8.12987778 -14.11322067 7.01931541 -11.125 4.75 C-10.24070312 4.06421875 -9.35640625 3.3784375 -8.4453125 2.671875 C-5.47059006 0.63803921 -3.60954691 0 0 0 Z " fill="#A4C7C6" transform="translate(93,86)"/>
<path d="M0 0 C3.95691434 2.08676687 6.28561349 3.96966239 7.765625 8.25390625 C8.18186499 9.89469742 8.57655275 11.5410594 8.953125 13.19140625 C9.34951172 14.46951172 9.34951172 14.46951172 9.75390625 15.7734375 C13.41926926 28.1939804 14.71393891 41.85816877 10.15625 54.13671875 C8.953125 56.19140625 8.953125 56.19140625 5.953125 57.19140625 C4.963125 57.19140625 3.973125 57.19140625 2.953125 57.19140625 C2.953125 56.53140625 2.953125 55.87140625 2.953125 55.19140625 C-2.85457366 54.24337313 -8.60896687 53.88693353 -14.484375 53.62890625 C-15.40669922 53.58572266 -16.32902344 53.54253906 -17.27929688 53.49804688 C-19.53503663 53.39285694 -21.79086999 53.29071518 -24.046875 53.19140625 C-24.376875 52.53140625 -24.706875 51.87140625 -25.046875 51.19140625 C-24.386875 51.19140625 -23.726875 51.19140625 -23.046875 51.19140625 C-23.046875 50.53140625 -23.046875 49.87140625 -23.046875 49.19140625 C-22.386875 49.19140625 -21.726875 49.19140625 -21.046875 49.19140625 C-20.758125 48.44890625 -20.469375 47.70640625 -20.171875 46.94140625 C-19.046875 44.19140625 -19.046875 44.19140625 -17.99609375 42.46875 C-14.9425552 35.14277067 -16.6138738 25.30917596 -19.4296875 18.17578125 C-20.91833551 13.38949525 -19.58758007 9.29361274 -17.421875 4.87890625 C-12.87772375 -0.26315964 -6.5489616 -2.58708979 0 0 Z " fill="#BAC62C" transform="translate(53.046875,28.80859375)"/>
<path d="M0 0 C3.97599746 2.06162831 6.65131695 4.20026277 9 8 C9.72568194 12.77384885 9.60555288 17.41883413 7.875 21.9375 C4.21022356 25.96875409 0.99891329 28.23153454 -4.5 28.5 C-8.9547639 28.29001113 -11.57962946 26.93174618 -15 24 C-18.59168941 20.03971239 -18.50324212 16.86620863 -18.3515625 11.6953125 C-17.71639272 6.82567753 -15.43269627 4.22802537 -11.8125 1.125 C-7.80225661 -0.47909736 -4.25954636 -0.6836309 0 0 Z " fill="#A3C6C6" transform="translate(120,117)"/>
<path d="M0 0 C4.04531181 3.68837254 5.90776056 7.16855028 6.5625 12.5 C5.87252508 17.92123148 4.16922258 21.37301772 -0.0625 24.8125 C-3.34968775 26.95090214 -5.97737857 27.6255236 -9.8828125 27.3671875 C-14.68678421 26.33103674 -18.13423654 24.04864519 -20.875 19.9375 C-21.2109375 16.7578125 -21.2109375 16.7578125 -21.25 13.0625 C-21.27835938 11.84820312 -21.30671875 10.63390625 -21.3359375 9.3828125 C-20.79306691 5.3250849 -19.77430339 3.77576542 -16.875 0.9375 C-11.93649157 -2.35152674 -5.40314568 -1.99681471 0 0 Z " fill="#B8C330" transform="translate(20.875,49.0625)"/>
<path d="M0 0 C3.25 2.25 3.25 2.25 5 5 C5.433125 5.598125 5.86625 6.19625 6.3125 6.8125 C7.86760913 11.76057452 7.70716085 16.225917 5.375 20.8125 C2.71940776 24.37658433 1.20234072 25.62615784 -3 27 C-8.30626058 27.58958451 -12.00379655 27.27569036 -16.51953125 24.3203125 C-19.77044826 21.42107781 -20.85085584 18.05527922 -21.16015625 13.79296875 C-20.94960053 8.84912033 -19.66366633 4.87445208 -16.2109375 1.26171875 C-11.26183297 -1.56259355 -5.44140223 -0.94747512 0 0 Z " fill="#B32184" transform="translate(82,0)"/>
<path d="M0 0 C3.75835253 2.42204941 6.18495565 4.48714731 7.3828125 8.92578125 C8.1989541 14.09178394 7.81830167 17.35562167 4.8125 21.8125 C2.42341798 24.87700007 1.38177956 25.73411612 -2.53515625 26.2734375 C-4.37400391 26.23089844 -4.37400391 26.23089844 -6.25 26.1875 C-7.47847656 26.17460937 -8.70695312 26.16171875 -9.97265625 26.1484375 C-13.1875 25.8125 -13.1875 25.8125 -16.1875 23.8125 C-16.1875 23.1525 -16.1875 22.4925 -16.1875 21.8125 C-16.8475 21.8125 -17.5075 21.8125 -18.1875 21.8125 C-20.31384117 17.55981766 -20.89806176 13.49332558 -20.1875 8.8125 C-18.80165607 4.85182104 -16.86999702 2.28266462 -13.375 -0.125 C-8.45815029 -1.7639499 -4.86919062 -1.81401219 0 0 Z " fill="#EBC520" transform="translate(43.1875,120.1875)"/>
<path d="M0 0 C3.23025335 1.627225 5.36088661 3.72177322 7 7 C8.04817082 17.84108101 8.04817082 17.84108101 5.953125 22.15625 C3.50869405 25.08956714 1.42113757 26.85835067 -2.390625 27.23828125 C-7.01772065 27.35838346 -10.24753676 27.34935793 -14.5 25.375 C-18.36425153 21.70396104 -19.84602283 18.75533971 -20.3125 13.4375 C-20.01767053 10.19437584 -19.41145935 7.91113491 -18 5 C-17.34 5 -16.68 5 -16 5 C-15.67 4.01 -15.34 3.02 -15 2 C-10.33020791 -1.11319473 -5.46441192 -0.72810766 0 0 Z " fill="#D35826" transform="translate(143,45)"/>
<path d="M0 0 C3.06510569 1.28573722 3.84976494 2.26862032 6 5 C6.875 8.8125 6.875 8.8125 7 12 C6.7525 11.4225 6.505 10.845 6.25 10.25 C3.9290041 6.07220738 1.5825239 3.95376158 -3 2.625 C-5.46755301 2.11778077 -6.78426893 1.94606723 -9.25 2.5625 C-14.93726476 7.23418177 -15.96444232 11.98273413 -17 19 C-17.66 19 -18.32 19 -19 19 C-20.51516221 15.96967558 -20.17028053 13.34885038 -20 10 C-19 7.0625 -19 7.0625 -18 5 C-17.34 5 -16.68 5 -16 5 C-15.67 4.01 -15.34 3.02 -15 2 C-10.31309514 -1.12460324 -5.48170509 -0.69425289 0 0 Z " fill="#C2623D" transform="translate(143,45)"/>
<path d="M0 0 C4.79711126 7.19566688 5.31887739 16.2456744 5.875 24.6875 C5.93631104 25.47060547 5.99762207 26.25371094 6.06079102 27.06054688 C6.36028082 32.9199696 5.18329629 37.57564635 3 43 C2.67 43 2.34 43 2 43 C2.08378906 42.20980469 2.16757812 41.41960937 2.25390625 40.60546875 C2.90970917 33.34182882 3.04322373 26.27925325 2.6875 19 C2.65277588 18.19973389 2.61805176 17.39946777 2.58227539 16.57495117 C2.32246945 12.03525946 1.53566038 8.31238506 0 4 C0 2.68 0 1.36 0 0 Z " fill="#C7AF4D" transform="translate(60,39)"/>
<path d="M0 0 C3.52142777 0.11081889 7.04187564 0.24122073 10.5625 0.375 C11.55314453 0.4059375 12.54378906 0.436875 13.56445312 0.46875 C19.04202523 0.68712497 23.8104654 1.20950139 29 3 C29 3.66 29 4.32 29 5 C28.46536133 4.84152588 27.93072266 4.68305176 27.37988281 4.51977539 C24.53295968 3.89799663 21.83472843 3.7835446 18.921875 3.68359375 C17.76171875 3.64169922 16.6015625 3.59980469 15.40625 3.55664062 C14.1996875 3.51732422 12.993125 3.47800781 11.75 3.4375 C10.52796875 3.39431641 9.3059375 3.35113281 8.046875 3.30664062 C5.0313608 3.20062645 2.01576552 3.09856064 -1 3 C-0.67 2.01 -0.34 1.02 0 0 Z " fill="#DEC729" transform="translate(27,81)"/>
<path d="M0 0 C-0.10699219 0.82242188 -0.21398437 1.64484375 -0.32421875 2.4921875 C-1.1392026 10.08117689 -0.83963431 15.89289266 2 23 C-3.03710888 18.46660201 -4.18565328 14.35092531 -4.625 7.6875 C-4.73714844 6.08455078 -4.73714844 6.08455078 -4.8515625 4.44921875 C-4.90054688 3.64097656 -4.94953125 2.83273438 -5 2 C-2 0 -2 0 0 0 Z " fill="#CC6951" transform="translate(115,50)"/>
<path d="M0 0 C0.33 0.66 0.66 1.32 1 2 C0.01 2.66 -0.98 3.32 -2 4 C-4.30432233 8.12352417 -4.60189985 12.37671134 -4 17 C-3.18766297 19.48866258 -2.17631702 21.64736596 -1 24 C-4 23 -4 23 -5.6875 21.0625 C-7.5774777 16.65255203 -7.8082697 12.72470378 -7 8 C-5.36111957 4.63119023 -3.43741272 1.71870636 0 0 Z " fill="#E0C953" transform="translate(24,83)"/>
<path d="M0 0 C0.85722656 -0.00515625 1.71445313 -0.0103125 2.59765625 -0.015625 C4.9375 0.25 4.9375 0.25 7.9375 2.25 C7.6075 2.91 7.2775 3.57 6.9375 4.25 C5.74253906 4.08951172 5.74253906 4.08951172 4.5234375 3.92578125 C-3.75097247 2.93249166 -3.75097247 2.93249166 -11.0625 6.25 C-10.11420627 3.87926568 -9.48708856 2.51925128 -7.30078125 1.1328125 C-4.72320678 0.11617754 -2.76434358 -0.01667779 0 0 Z " fill="#B7BF57" transform="translate(13.0625,47.75)"/>
<path d="M0 0 C-3.22791555 2.1519437 -4.28400809 2.20086443 -8 2 C-8.268125 2.639375 -8.53625 3.27875 -8.8125 3.9375 C-10 6 -10 6 -13 7 C-13.66 7.99 -14.32 8.98 -15 10 C-15.33 9.01 -15.66 8.02 -16 7 C-11.81724286 0.40411373 -7.48927322 -0.29369699 0 0 Z " fill="#C7AD3C" transform="translate(40,119)"/>
<path d="M0 0 C0.99 0.495 0.99 0.495 2 1 C2.45703125 2.92578125 2.45703125 2.92578125 2.8125 5.3125 C3.51308965 8.78786599 3.814296 9.80940906 6.375 12.4375 C8.55254768 13.73365933 10.68462402 14.97094401 13 16 C10.3125 16.3125 10.3125 16.3125 7 16 C3.39071372 13.12897683 1.19857122 10.46740182 0 6 C-0.125 2.6875 -0.125 2.6875 0 0 Z " fill="#C667A6" transform="translate(61,10)"/>
<path d="M0 0 C2.35348271 2.35348271 2.36468749 3.21466691 2.6875 6.4375 C2.77386719 7.21996094 2.86023437 8.00242188 2.94921875 8.80859375 C3 11 3 11 2 14 C1.01 14.33 0.02 14.66 -1 15 C-0.67 14.01 -0.34 13.02 0 12 C0.068991 9.93854893 0.08467727 7.87498599 0.0625 5.8125 C0.05347656 4.72582031 0.04445312 3.63914063 0.03515625 2.51953125 C0.02355469 1.68808594 0.01195312 0.85664062 0 0 Z " fill="#B59A30" transform="translate(48,125)"/>
<path d="M0 0 C1.32 0.33 2.64 0.66 4 1 C3.57847656 1.44730469 3.15695313 1.89460938 2.72265625 2.35546875 C-1.5377979 6.98399766 -1.5377979 6.98399766 -3 13 C-3.66 13 -4.32 13 -5 13 C-3.25740319 3.40546697 -3.25740319 3.40546697 0 0 Z " fill="#C4CE5C" transform="translate(38,31)"/>
<path d="M0 0 C10.91974582 -0.78371382 10.91974582 -0.78371382 15.1875 2.3125 C17 5 17 5 18 8 C17.34 8 16.68 8 16 8 C16 7.34 16 6.68 16 6 C15.34 6 14.68 6 14 6 C14 5.01 14 4.02 14 3 C9.38 2.34 4.76 1.68 0 1 C0 0.67 0 0.34 0 0 Z " fill="#C34C9F" transform="translate(70,0)"/>
<path d="M0 0 C0.99 0 1.98 0 3 0 C1.82701739 3.97009499 0.51692311 6.74897431 -2 10 C-2.71162443 11.64797236 -3.39031953 13.31165408 -4 15 C-5.43088528 12.13822943 -4.59991697 10.06624227 -4 7 C-3.34 7 -2.68 7 -2 7 C-2 6.01 -2 5.02 -2 4 C-1.34 4 -0.68 4 0 4 C0 2.68 0 1.36 0 0 Z " fill="#D4C653" transform="translate(69,104)"/>
<path d="M0 0 C3.44738372 1.53217054 6.25309882 3.40570444 9 6 C9 7.32 9 8.64 9 10 C8.34 10 7.68 10 7 10 C6.67 11.32 6.34 12.64 6 14 C5 12 5 12 5.25 9.25 C4.90136554 4.71775208 3.0908497 3.24539219 0 0 Z " fill="#DBC856" transform="translate(67,90)"/>
<path d="M0 0 C0.66 0.33 1.32 0.66 2 1 C1.58846263 5.97093824 1.20399168 10.44508386 -1 15 C-1.33 15 -1.66 15 -2 15 C-1.85930804 12.87465341 -1.71229079 10.74972471 -1.5625 8.625 C-1.48128906 7.44164063 -1.40007813 6.25828125 -1.31640625 5.0390625 C-1 2 -1 2 0 0 Z " fill="#A9B349" transform="translate(64,67)"/>
<path d="M0 0 C1.33332095 2.6666419 0.67102033 4.16680303 0 7 C-0.66 7 -1.32 7 -2 7 C-2 9.97 -2 12.94 -2 16 C-3.32 16 -4.64 16 -6 16 C-6 15.34 -6 14.68 -6 14 C-5.34 13.67 -4.68 13.34 -4 13 C-3.855625 11.948125 -3.71125 10.89625 -3.5625 9.8125 C-2.9932122 5.95399377 -1.89367366 3.37567913 0 0 Z " fill="#BBC99E" transform="translate(67,113)"/>
<path d="M0 0 C0 0.66 0 1.32 0 2 C-2.64458379 3.32229189 -4.67761301 3.09677194 -7.625 3.0625 C-8.62789062 3.05347656 -9.63078125 3.04445313 -10.6640625 3.03515625 C-11.43492187 3.02355469 -12.20578125 3.01195313 -13 3 C-12.67 2.34 -12.34 1.68 -12 1 C-10.0390625 0.5859375 -10.0390625 0.5859375 -7.625 0.375 C-6.43777344 0.26285156 -6.43777344 0.26285156 -5.2265625 0.1484375 C-3.48753275 0.03250218 -1.74288998 0 0 0 Z " fill="#BF6540" transform="translate(145,69)"/>
<path d="M0 0 C3.91255361 0.57963757 6.2572767 2.18314904 9 5 C9.8125 8.75 9.8125 8.75 10 12 C9.7525 11.4225 9.505 10.845 9.25 10.25 C7.02363521 6.24254337 4.19528537 3.79797945 0 2 C0 1.34 0 0.68 0 0 Z " fill="#DA7D56" transform="translate(140,45)"/>
<path d="M0 0 C0.33 0 0.66 0 1 0 C1.33 3.3 1.66 6.6 2 10 C2.99 10.33 3.98 10.66 5 11 C6.1875 13.0625 6.1875 13.0625 7 15 C6.01 15 5.02 15 4 15 C4 14.34 4 13.68 4 13 C3.34 13 2.68 13 2 13 C-0.24828052 8.50343896 -0.16682272 4.92127034 0 0 Z " fill="#AB9736" transform="translate(23,129)"/>
<path d="M0 0 C3.80635497 3.20760251 7.54563567 6.40746109 11 10 C7.6989701 9.40114059 5.78574977 8.30314403 3.25 6.125 C2.63640625 5.61195312 2.0228125 5.09890625 1.390625 4.5703125 C0 3 0 3 0 0 Z " fill="#D37E5A" transform="translate(117,73)"/>
<path d="M0 0 C2.6635969 0.35994553 4.58183452 0.71161002 6.8125 2.25 C8.39364795 4.58011277 8.22337696 6.24501755 8 9 C6 8 6 8 5 5 C3.37347684 3.29413425 1.70993434 1.6222454 0 0 Z " fill="#B8AE5A" transform="translate(52,30)"/>
<path d="M0 0 C3.53586014 3.17320782 5.58578031 5.16743695 6 10 C5.01 10 4.02 10 3 10 C2.690625 8.906875 2.38125 7.81375 2.0625 6.6875 C1.41662103 4.44592006 0.7376883 2.2130649 0 0 Z " fill="#D17C5A" transform="translate(129,83)"/>
<path d="M0 0 C3 1 3 1 5 4 C4.67 4.99 4.34 5.98 4 7 C2.35 5.68 0.7 4.36 -1 3 C-0.67 2.01 -0.34 1.02 0 0 Z " fill="#CDB33E" transform="translate(52,112)"/>
<path d="M0 0 C2.97 0.99 5.94 1.98 9 3 C9 3.33 9 3.66 9 4 C6.03 4 3.06 4 0 4 C0 2.68 0 1.36 0 0 Z " fill="#A23C79" transform="translate(60,35)"/>
<path d="M0 0 C1.6254308 0.14095064 3.25034051 0.28792087 4.875 0.4375 C5.77992187 0.51871094 6.68484375 0.59992188 7.6171875 0.68359375 C10 1 10 1 12 2 C12 2.66 12 3.32 12 4 C6 2.5 6 2.5 0 1 C0 0.67 0 0.34 0 0 Z " fill="#CEC41F" transform="translate(44,82)"/>
<path d="M0 0 C0.9075 0.61875 1.815 1.2375 2.75 1.875 C5.14948817 3.44389611 7.40961612 4.80443821 10 6 C6.67179946 6.22692276 4.58198664 6.32162419 1.625 4.6875 C0 3 0 3 0 0 Z " fill="#BC5B9D" transform="translate(64,20)"/>
<path d="M0 0 C0.66 0.33 1.32 0.66 2 1 C-0.625 5.875 -0.625 5.875 -4 7 C-3.43628586 3.73045798 -2.50037734 2.17424117 0 0 Z " fill="#B84793" transform="translate(67,1)"/>
<path d="M0 0 C-0.33 0.66 -0.66 1.32 -1 2 C-3.3431213 1.74438677 -5.67843403 1.40729228 -8 1 C-8.33 0.34 -8.66 -0.32 -9 -1 C-5.22102349 -2.0497157 -3.35080929 -2.10976881 0 0 Z " fill="#C1CB4E" transform="translate(21,50)"/>
</svg>
